<?xml version="1.0" encoding="utf-8"?>
<!-- Uploaded to: SVG Repo, www.svgrepo.com, Generator: SVG Repo Mixer Tools -->
<svg width="800px" height="800px" viewBox="0 0 256 256" xmlns="http://www.w3.org/2000/svg">
<defs>
<style>.cls-1{fill:#cbecf9;}.cls-2{fill:#ffffff;}.cls-3{fill:#2fb1ea;}.cls-4{fill:#e5f5fc;}.cls-5{fill:#f88;}.cls-6{fill:#ffe76e;}.cls-7{fill:#d4ffd4;}.cls-8{fill:#ffbdbd;}.cls-9{fill:#bbf1ff;}.cls-10{fill:#fff4c5;}</style>
</defs>
<title>business economic finance interprise company news</title>
<g id="Layer_2" data-name="Layer 2">
<rect class="cls-1" x="62.44" y="49.43" width="131.13" height="182.52"/>
<rect class="cls-2" x="62.44" y="49.43" width="121.33" height="172.56"/>
<path class="cls-3" d="M193.56,234H62.44a2,2,0,0,1-2-2V49.43a2,2,0,0,1,2-2H193.56a2,2,0,0,1,2,2V232A2,2,0,0,1,193.56,234ZM64.44,230H191.56V51.43H64.44Z"/>
<polygon class="cls-1" points="181.76 24.05 181.76 49.44 62.44 49.44 181.76 24.05"/>
<path class="cls-3" d="M181.76,51.44H62.44a2,2,0,0,1-.42-4L181.35,22.09a2,2,0,0,1,2.42,2V49.44A2,2,0,0,1,181.76,51.44Zm-100.32-4h98.32V26.52Z"/>
<polygon class="cls-4" points="187.28 36.74 187.28 49.44 62.44 49.44 187.28 36.74"/>
<path class="cls-3" d="M187.28,51.44H62.44a2,2,0,0,1-.2-4L187.07,34.75a2,2,0,0,1,2.2,2V49.44A2,2,0,0,1,187.28,51.44Zm-85.4-4h83.4V39Z"/>
<path class="cls-5" d="M116.13,81.38H80.63a4,4,0,0,1,0-8h35.5a4,4,0,0,1,0,8Z"/>
<path class="cls-5" d="M116.13,106.7H80.63a4,4,0,1,1,0-8h35.5a4,4,0,1,1,0,8Z"/>
<path class="cls-5" d="M175.38,157.36h-35.5a4,4,0,0,1,0-8h35.5a4,4,0,0,1,0,8Z"/>
<path class="cls-5" d="M175.38,132h-35.5a4,4,0,0,1,0-8h35.5a4,4,0,0,1,0,8Z"/>
<path class="cls-5" d="M116.13,132H80.63a4,4,0,0,1,0-8h35.5a4,4,0,0,1,0,8Z"/>
<path class="cls-5" d="M175.38,182.68h-35.5a4,4,0,0,1,0-8h35.5a4,4,0,0,1,0,8Z"/>
<path class="cls-5" d="M175.38,208h-35.5a4,4,0,0,1,0-8h35.5a4,4,0,0,1,0,8Z"/>
<rect class="cls-6" x="145.63" y="77.38" width="29.75" height="29.75" rx="8" ry="8"/>
<path class="cls-3" d="M167.38,109.13H153.63a10,10,0,0,1-10-10V85.38a10,10,0,0,1,10-10h13.75a10,10,0,0,1,10,10V99.13A10,10,0,0,1,167.38,109.13ZM153.63,79.38a6,6,0,0,0-6,6V99.13a6,6,0,0,0,6,6h13.75a6,6,0,0,0,6-6V85.38a6,6,0,0,0-6-6Z"/>
<rect class="cls-6" x="80.63" y="147.38" width="29.75" height="56.63" rx="8" ry="8"/>
<path class="cls-3" d="M102.38,206H88.63a10,10,0,0,1-10-10V155.38a10,10,0,0,1,10-10h13.75a10,10,0,0,1,10,10V196A10,10,0,0,1,102.38,206ZM88.63,149.38a6,6,0,0,0-6,6V196a6,6,0,0,0,6,6h13.75a6,6,0,0,0,6-6V155.38a6,6,0,0,0-6-6Z"/>
<circle class="cls-7" cx="200" cy="39" r="5"/>
<circle class="cls-7" cx="39" cy="142" r="4"/>
<circle class="cls-7" cx="33" cy="47" r="3"/>
<circle class="cls-7" cx="202" cy="107" r="2"/>
<circle class="cls-7" cx="229" cy="227" r="1"/>
<circle class="cls-8" cx="215" cy="249" r="5"/>
<circle class="cls-8" cx="207" cy="179" r="4"/>
<circle class="cls-8" cx="65" cy="240" r="3"/>
<circle class="cls-8" cx="206" cy="18" r="2"/>
<circle class="cls-8" cx="110" cy="19" r="1"/>
<circle class="cls-9" cx="28" cy="105" r="5"/>
<circle class="cls-9" cx="118" cy="244" r="4"/>
<circle class="cls-9" cx="215" cy="125" r="3"/>
<circle class="cls-9" cx="200" cy="80" r="2"/>
<circle class="cls-9" cx="31" cy="213" r="1"/>
<circle class="cls-10" cx="57" cy="7" r="5"/>
<circle class="cls-10" cx="140" cy="22" r="4"/>
<circle class="cls-10" cx="33" cy="176" r="3"/>
<circle class="cls-10" cx="44" cy="80" r="2"/>
<circle class="cls-10" cx="232" cy="158" r="1"/>
</g>
</svg>