<?xml version="1.0" encoding="utf-8"?>
<!-- Uploaded to: SVG Repo, www.svgrepo.com, Generator: SVG Repo Mixer Tools -->
<svg width="800px" height="800px" viewBox="0 0 1024 1024" class="icon"  version="1.1" xmlns="http://www.w3.org/2000/svg"><path d="M780.8 535.7l-39.5-6.2 46-292.8-286.6 48-6.6-39.4 341.3-57.2z" fill="#757575" /><path d="M626.153 367.866L760.915 236.92l27.876 28.688-134.762 130.947z" fill="#757575" /><path d="M404.6 711.1m-87.1 0a87.1 87.1 0 1 0 174.2 0 87.1 87.1 0 1 0-174.2 0Z" fill="#3A3A3A" /><path d="M811.4 212.4m-87.1 0a87.1 87.1 0 1 0 174.2 0 87.1 87.1 0 1 0-174.2 0Z" fill="#3A3A3A" /><path d="M329.1 63.9c-6.9 5.6-13.5 11.5-19.9 17.8-134.8 133.1-102.3 381 72.5 553.6S807.5 840 942.3 706.9c6.4-6.3 12.4-12.9 18-19.7L329.1 63.9zM575.4 928.1c0.5-3.8 0.8-7.6 0.8-11.5 1.9-81.5-82.2-147.6-187.9-147.7-105.7-0.1-193 65.9-195 147.4-0.1 3.9 0 7.7 0.3 11.5l381.8 0.3z" fill="#757575" /></svg>