<?xml version="1.0" encoding="utf-8"?>
<!-- Uploaded to: SVG Repo, www.svgrepo.com, Generator: SVG Repo Mixer Tools -->
<svg width="800px" height="800px" viewBox="0 0 1024 1024" class="icon"  version="1.1" xmlns="http://www.w3.org/2000/svg"><path d="M490.666667 106.666667h42.666666v768h-42.666666z" fill="#37474F" /><path d="M550.762667 699.136l30.165333 30.165333-214.186667 214.186667-30.165333-30.165333z" fill="#37474F" /><path d="M688.192 913.578667l-30.165333 30.165333-214.186667-214.186667 30.165333-30.165333z" fill="#37474F" /><path d="M85.333333 170.666667h853.333334v597.333333H85.333333z" fill="#CFD8DC" /><path d="M64 149.333333h896v85.333334H64zM64 746.666667h896v42.666666H64z" fill="#607D8B" /><path d="M672 928m-32 0a32 32 0 1 0 64 0 32 32 0 1 0-64 0Z" fill="#607D8B" /><path d="M352 928m-32 0a32 32 0 1 0 64 0 32 32 0 1 0-64 0Z" fill="#607D8B" /><path d="M680.533333 403.2l-125.866666 128-128-128-172.8 170.666667 46.933333 46.933333 125.866667-128 128 128 172.8-170.666667z" fill="#C51162" /><path d="M768 512l-149.333333-149.333333h149.333333z" fill="#C51162" /></svg>